<?xml version="1.0" encoding="UTF-8" standalone="no"?>
<!-- Created with Inkscape (http://www.inkscape.org/) -->

<svg
   xmlns:dc="http://purl.org/dc/elements/1.1/"
   xmlns:cc="http://creativecommons.org/ns#"
   xmlns:rdf="http://www.w3.org/1999/02/22-rdf-syntax-ns#"
   xmlns:svg="http://www.w3.org/2000/svg"
   xmlns="http://www.w3.org/2000/svg"
   xmlns:xlink="http://www.w3.org/1999/xlink"
   xmlns:sodipodi="http://sodipodi.sourceforge.net/DTD/sodipodi-0.dtd"
   xmlns:inkscape="http://www.inkscape.org/namespaces/inkscape"
   width="40"
   height="16"
   id="svg6907"
   sodipodi:version="0.32"
   inkscape:version="0.48.1 r9760"
   sodipodi:docname="mythtv-mono.svg"
   version="1.1"
   inkscape:export-filename="mythtv.png"
   inkscape:export-xdpi="443.29596"
   inkscape:export-ydpi="443.29596"
   inkscape:output_extension="org.inkscape.output.svg.inkscape">
  <title
     id="title3235">Official MythTV Logo</title>
  <defs
     id="defs6909">
    <linearGradient
       id="linearGradient3873">
      <stop
         style="stop-color:#ffffff;stop-opacity:1;"
         offset="0"
         id="stop3875" />
      <stop
         style="stop-color:#999999;stop-opacity:1;"
         offset="1"
         id="stop3877" />
    </linearGradient>
    <linearGradient
       id="linearGradient3865">
      <stop
         style="stop-color:#ffffff;stop-opacity:1;"
         offset="0"
         id="stop3867" />
      <stop
         style="stop-color:#818181;stop-opacity:1;"
         offset="1"
         id="stop3869" />
    </linearGradient>
    <linearGradient
       id="linearGradient5830">
      <stop
         id="stop6723"
         offset="0"
         style="stop-color:#646464;stop-opacity:1;" />
      <stop
         style="stop-color:white;stop-opacity:1;"
         offset="1"
         id="stop5834" />
    </linearGradient>
    <linearGradient
       id="linearGradient9386">
      <stop
         style="stop-color:#5a5a5a;stop-opacity:1;"
         offset="0"
         id="stop9388" />
      <stop
         style="stop-color:#dedede;stop-opacity:1;"
         offset="1"
         id="stop9390" />
    </linearGradient>
    <clipPath
       clipPathUnits="userSpaceOnUse"
       id="clipPath9296">
      <path
         clip-path="none"
         id="path9298"
         d="m 63.66886,69.371582 0,0.09369 C 31.63002,69.750835 5.70054,95.781556 5.70051,127.83655 c 0,32.05502 25.9295,58.08568 57.96835,58.37127 l 0,0.0937 245.8544,0 0,-0.0625 c 32.28355,0 58.49595,-26.17018 58.49594,-58.4025 0,-32.232297 -26.2124,-58.402485 -58.49594,-58.402505 l 0,-0.06246 -245.8544,0 z"
         style="fill:none;stroke:#000000;stroke-width:0.01;stroke-linejoin:round;stroke-miterlimit:4;stroke-opacity:1;stroke-dasharray:none"
         inkscape:connector-curvature="0" />
    </clipPath>
    <linearGradient
       id="linearGradient3163">
      <stop
         style="stop-color:#047fb3;stop-opacity:1;"
         offset="0"
         id="stop3165" />
      <stop
         style="stop-color:#0875a2;stop-opacity:1;"
         offset="1"
         id="stop3167" />
    </linearGradient>
    <filter
       inkscape:collect="always"
       id="filter31186"
       color-interpolation-filters="sRGB">
      <feGaussianBlur
         inkscape:collect="always"
         stdDeviation="3.8783644"
         id="feGaussianBlur31188" />
    </filter>
    <mask
       maskUnits="userSpaceOnUse"
       id="mask33138">
      <path
         style="fill:none;stroke:#ffffff;stroke-width:14.99881935;stroke-linecap:round;stroke-linejoin:miter;stroke-miterlimit:4;stroke-opacity:1;stroke-dasharray:none;filter:url(#filter31186)"
         d="M 241.20825,65.348108 C 220.0623,55.09932 200.33986,48.63158 166.72134,45.76995 113.14806,41.20977 53.09004,59.72707 22.48597,106.72941 -3.65263,146.87359 7.37342,210.35439 30.74934,249.8367 c 32.56535,55.00341 99.3715,98.1484 153.24725,111.43527"
         id="use33140"
         sodipodi:nodetypes="cssss"
         clip-path="none"
         inkscape:connector-curvature="0" />
    </mask>
    <filter
       inkscape:collect="always"
       id="filter34151"
       color-interpolation-filters="sRGB">
      <feGaussianBlur
         inkscape:collect="always"
         stdDeviation="4.4225963"
         id="feGaussianBlur34153" />
    </filter>
    <filter
       inkscape:collect="always"
       id="filter34155"
       color-interpolation-filters="sRGB">
      <feGaussianBlur
         inkscape:collect="always"
         stdDeviation="4.4225963"
         id="feGaussianBlur34157" />
    </filter>
    <filter
       inkscape:collect="always"
       id="filter34159"
       color-interpolation-filters="sRGB">
      <feGaussianBlur
         inkscape:collect="always"
         stdDeviation="4.4225963"
         id="feGaussianBlur34161" />
    </filter>
    <filter
       inkscape:collect="always"
       id="filter34163"
       color-interpolation-filters="sRGB">
      <feGaussianBlur
         inkscape:collect="always"
         stdDeviation="4.4225963"
         id="feGaussianBlur34165" />
    </filter>
    <filter
       inkscape:collect="always"
       id="filter34167"
       color-interpolation-filters="sRGB">
      <feGaussianBlur
         inkscape:collect="always"
         stdDeviation="4.4225963"
         id="feGaussianBlur34169" />
    </filter>
    <filter
       inkscape:collect="always"
       id="filter34171"
       color-interpolation-filters="sRGB">
      <feGaussianBlur
         inkscape:collect="always"
         stdDeviation="4.4225963"
         id="feGaussianBlur34173" />
    </filter>
    <filter
       inkscape:collect="always"
       id="filter34175"
       color-interpolation-filters="sRGB">
      <feGaussianBlur
         inkscape:collect="always"
         stdDeviation="4.4225963"
         id="feGaussianBlur34177" />
    </filter>
    <filter
       inkscape:collect="always"
       id="filter34179"
       color-interpolation-filters="sRGB">
      <feGaussianBlur
         inkscape:collect="always"
         stdDeviation="4.4225963"
         id="feGaussianBlur34181" />
    </filter>
    <mask
       maskUnits="userSpaceOnUse"
       id="mask34183">
      <path
         style="fill:none;stroke:#f5f5f5;stroke-width:15;stroke-linecap:butt;stroke-linejoin:miter;stroke-miterlimit:4;stroke-opacity:1;stroke-dasharray:none;filter:url(#filter34179)"
         d="M 238.28617,55.400316 C 226.14773,49.761178 210.16411,42.965309 183.8822,39.84992 128.26142,33.201519 77.28526,44.38855 43.3774,91.82135 c -25.91792,36.2559 -21.47856,86.29645 -1.64114,123.94843 41.79128,79.32104 134.72531,130.67217 224.91168,117.89203 47.5588,-6.73946 88.52985,-47.3689 90.99281,-95.28715 1.55176,-30.19044 -10.14033,-59.89998 -24.76376,-85.80988 -16.97209,-30.07129 -49.33898,-64.886468 -94.9319,-89.081333"
         id="use34185"
         sodipodi:nodetypes="csssssss"
         clip-path="none"
         inkscape:connector-curvature="0" />
    </mask>
    <mask
       maskUnits="userSpaceOnUse"
       id="mask36125">
      <path
         style="fill:none;stroke:#f5f5f5;stroke-width:15;stroke-linecap:butt;stroke-linejoin:miter;stroke-miterlimit:4;stroke-opacity:1;stroke-dasharray:none;filter:url(#filter34175)"
         d="M 238.75962,47.06979 C 221.75077,37.617169 183.14775,26.242546 147.48425,30.94523 105.25248,36.514023 60.762169,65.184722 50.73394,107.7285 c -10.897329,46.23085 11.06388,93.03591 41.72991,126.72667 48.78927,53.60156 127.72564,90.23644 198.16559,66.78585 34.93303,-11.62977 64.35176,-46.10704 65.75564,-85.01784 C 357.38576,188.4875 341.49096,152.3851 326.2252,129.94493 312.13999,109.24013 279.79835,74.281731 236.91775,52.874"
         id="use36127"
         sodipodi:nodetypes="csssssss"
         clip-path="none"
         inkscape:connector-curvature="0" />
    </mask>
    <mask
       maskUnits="userSpaceOnUse"
       id="mask37098">
      <path
         style="fill:none;stroke:#f5f5f5;stroke-width:15;stroke-linecap:butt;stroke-linejoin:miter;stroke-miterlimit:4;stroke-opacity:1;stroke-dasharray:none;filter:url(#filter34171)"
         d="M 244.9035,39.075056 C 234.15927,35.566607 214.66034,23.86255 184.78857,25.13887 146.98707,26.754 106.64625,36.704818 85.16571,70.18454 62.446866,105.5943 71.99691,152.31047 94.75736,185.886 c 42.86857,63.23843 125.31008,106.04259 200.08651,82.45475 47.36034,-14.93958 67.34387,-76.0439 47.72016,-121.73053 -14.55363,-33.8828 -64.95236,-88.041496 -103.6014,-99.938927"
         id="use37100"
         sodipodi:nodetypes="cssssss"
         clip-path="none"
         inkscape:connector-curvature="0" />
    </mask>
    <mask
       maskUnits="userSpaceOnUse"
       id="mask38071">
      <path
         style="fill:none;stroke:#f5f5f5;stroke-width:15;stroke-linecap:butt;stroke-linejoin:miter;stroke-miterlimit:4;stroke-opacity:1;stroke-dasharray:none;filter:url(#filter34167)"
         d="m 212.53724,23.58135 c -28.45498,-1.55548 -57.41221,-0.207791 -81.54816,14.9339 -35.85787,22.495439 -40.61288,75.51189 -21.48043,111.48867 28.94178,54.42232 88.52191,87.16176 148.20889,93.04957 30.83696,3.0419 66.4912,-7.92706 81.13472,-37.78253 C 354.9564,172.43755 344.18859,133.96392 324.2418,104.91744 310.97407,85.59699 283.29808,56.344042 243.97116,39.210394"
         id="use38073"
         sodipodi:nodetypes="cssssss"
         clip-path="none"
         inkscape:connector-curvature="0" />
    </mask>
    <mask
       maskUnits="userSpaceOnUse"
       id="mask39044">
      <path
         style="fill:none;stroke:#f5f5f5;stroke-width:15;stroke-linecap:butt;stroke-linejoin:miter;stroke-miterlimit:4;stroke-opacity:1;stroke-dasharray:none;filter:url(#filter34163)"
         d="M 232.85524,22.543527 C 219.87815,21.603032 178.54695,9.2878884 141.89556,43.46233 c -22.91039,21.362078 -19.6926,60.77952 -8.20476,84.44681 19.46175,40.09518 63.02171,70.84306 108.17501,80.04281 26.74946,5.45007 59.09142,5.46594 80.37384,-13.00886 26.42531,-22.93924 22.9645,-66.05313 3.97133,-94.61591 C 312.71109,80.02545 285.39402,43.56428 220.55307,21.494998"
         id="use39046"
         sodipodi:nodetypes="cssssss"
         clip-path="none"
         inkscape:connector-curvature="0" />
    </mask>
    <mask
       maskUnits="userSpaceOnUse"
       id="mask40017">
      <path
         style="fill:none;stroke:#f5f5f5;stroke-width:15;stroke-linecap:butt;stroke-linejoin:miter;stroke-miterlimit:4;stroke-opacity:1;stroke-dasharray:none;filter:url(#filter34159)"
         d="m 249.46207,24.468084 c -6.09776,-0.836699 -29.24529,-7.236399 -43.2157,-5.060069 -23.92743,3.727449 -44.25964,12.927625 -50.46881,38.997235 -8.85275,37.16889 12.1988,73.20426 40.82062,94.54456 28.77154,21.45192 66.3792,32.53933 101.6114,23.4185 23.47097,-6.07611 40.18356,-30.1372 36.65848,-54.55191 C 329.93179,87.62771 295.6724,37.218555 232.65223,21.942023"
         id="use40019"
         sodipodi:nodetypes="cssssss"
         clip-path="none"
         inkscape:connector-curvature="0" />
    </mask>
    <mask
       maskUnits="userSpaceOnUse"
       id="mask40990">
      <path
         style="fill:none;stroke:#f5f5f5;stroke-width:15;stroke-linecap:butt;stroke-linejoin:miter;stroke-miterlimit:4;stroke-opacity:1;stroke-dasharray:none;filter:url(#filter34155)"
         d="M 259.15236,26.913636 C 242.87728,23.982782 224.49324,15.7751 203.99108,24.26048 c -20.50216,8.48538 -32.7719,43.537888 -10.36142,78.09148 23.39722,36.075 72.28176,50.36647 100.66651,41.41217 27.9611,-8.82065 35.31712,-29.396 31.52747,-47.56865 -3.78965,-18.172653 -37.54293,-53.450916 -77.12787,-72.519041"
         id="use40992"
         sodipodi:nodetypes="csssss"
         clip-path="none"
         inkscape:connector-curvature="0" />
    </mask>
    <mask
       maskUnits="userSpaceOnUse"
       id="mask41963">
      <path
         style="fill:none;stroke:#f5f5f5;stroke-width:14.99881935;stroke-linecap:round;stroke-linejoin:miter;stroke-miterlimit:4;stroke-opacity:1;stroke-dasharray:none;filter:url(#filter34151)"
         d="m 258.92498,46.748003 c -8.69141,-5.487713 -19.34071,-3.783731 -22.93912,2.199478 -4.14172,6.8866 1.85369,18.090643 8.61319,24.280075 8.68233,7.950105 29.19113,14.075139 39.67889,3.700477 7.74997,-7.666393 15.01816,-25.503512 -2.89044,-38.103963 -18.65402,-13.12493 -46.53052,-23.415597 -63.08469,-7.72106 -17.26814,16.37143 -11.84488,40.763865 5.11622,59.19916 16.9611,18.43529 56.42133,33.97189 77.36366,15.52209 19.6601,-17.320178 6.96798,-43.964813 -9.91078,-57.156593"
         id="use41965"
         sodipodi:nodetypes="cssssssss"
         clip-path="none"
         inkscape:connector-curvature="0" />
    </mask>
    <linearGradient
       inkscape:collect="always"
       xlink:href="#linearGradient9386"
       id="linearGradient4972"
       gradientUnits="userSpaceOnUse"
       gradientTransform="matrix(0,-1,1,0,298.6916,336.8915)"
       x1="168.70312"
       y1="-34.21875"
       x2="228.01562"
       y2="-34.21875" />
    <linearGradient
       inkscape:collect="always"
       xlink:href="#linearGradient5830"
       id="linearGradient4974"
       gradientUnits="userSpaceOnUse"
       gradientTransform="matrix(0,-1,1,0,176.0666,193.7977)"
       x1="29.598955"
       y1="-43.317711"
       x2="107.50521"
       y2="-43.317711" />
    <linearGradient
       inkscape:collect="always"
       xlink:href="#linearGradient3163"
       id="linearGradient5023"
       gradientUnits="userSpaceOnUse"
       gradientTransform="translate(-0.83623,3.26581)"
       x1="133.68684"
       y1="42.27663"
       x2="210.33438"
       y2="193.59747" />
    <clipPath
       clipPathUnits="userSpaceOnUse"
       id="clipPath3365">
      <path
         clip-path="none"
         id="path3367"
         d="m 167.38224,20.65028 0,0.09369 c -32.03884,0.28556 -57.96832,26.31628 -57.96835,58.37128 0,32.05502 25.9295,58.08568 57.96835,58.37127 l 0,0.0937 245.8544,0 0,-0.0625 c 32.28355,0 58.49595,-26.17018 58.49594,-58.4025 0,-32.2323 -26.2124,-58.40249 -58.49594,-58.40251 l 0,-0.06246 -245.8544,0 z"
         style="fill:none;stroke:#004664;stroke-width:2.77264786;stroke-linejoin:round;stroke-miterlimit:4;stroke-opacity:1;stroke-dasharray:none"
         inkscape:connector-curvature="0" />
    </clipPath>
    <filter
       inkscape:collect="always"
       id="filter4163"
       color-interpolation-filters="sRGB">
      <feGaussianBlur
         inkscape:collect="always"
         stdDeviation="0.17965625"
         id="feGaussianBlur4165" />
    </filter>
    <filter
       inkscape:collect="always"
       id="filter4171"
       color-interpolation-filters="sRGB">
      <feGaussianBlur
         inkscape:collect="always"
         stdDeviation="0.21828126"
         id="feGaussianBlur4173" />
    </filter>
    <clipPath
       clipPathUnits="userSpaceOnUse"
       id="clipPath4536">
      <path
         clip-path="none"
         id="path4538"
         d="m 77.144861,72.637391 0,0.09369 c -30.6204,0.28556 -55.401917,26.31628 -55.401946,58.371279 0,32.05502 24.781536,58.08568 55.401946,58.37127 l 0,0.0937 234.969809,0 0,-0.0625 c 30.85428,0 55.90619,-26.17018 55.90618,-58.4025 0,-32.232299 -25.05191,-58.402489 -55.90618,-58.402509 l 0,-0.06246 -234.969809,0 z"
         style="fill:none;stroke:#006a98;stroke-width:4.88806581;stroke-linejoin:round;stroke-miterlimit:4;stroke-opacity:1;stroke-dasharray:none"
         inkscape:connector-curvature="0" />
    </clipPath>
    <linearGradient
       inkscape:collect="always"
       xlink:href="#linearGradient3873"
       id="linearGradient3879"
       x1="169.18579"
       y1="97.805878"
       x2="169.18579"
       y2="161.56454"
       gradientUnits="userSpaceOnUse" />
    <linearGradient
       inkscape:collect="always"
       xlink:href="#linearGradient3873"
       id="linearGradient3898"
       x1="203.28761"
       y1="139.85756"
       x2="324.953"
       y2="139.85756"
       gradientUnits="userSpaceOnUse" />
  </defs>
  <sodipodi:namedview
     inkscape:document-units="mm"
     pagecolor="#ffffff"
     bordercolor="#666666"
     borderopacity="1.0"
     inkscape:pageopacity="0.0"
     inkscape:pageshadow="2"
     inkscape:zoom="16"
     inkscape:cx="23.381891"
     inkscape:cy="5.966796"
     inkscape:current-layer="svg6907"
     id="namedview6911"
     inkscape:window-width="1186"
     inkscape:window-height="737"
     inkscape:window-x="90"
     inkscape:window-y="171"
     width="11cm"
     height="7.4cm"
     showguides="true"
     inkscape:guide-bbox="true"
     units="px"
     showgrid="false"
     inkscape:window-maximized="0"
     fit-margin-top="0"
     fit-margin-left="0"
     fit-margin-right="0"
     fit-margin-bottom="0" />
  <metadata
     id="metadata6913">
    <rdf:RDF>
      <cc:Work
         rdf:about="">
        <dc:format>image/svg+xml</dc:format>
        <dc:type
           rdf:resource="http://purl.org/dc/dcmitype/StillImage" />
        <dc:title>Official MythTV Logo</dc:title>
        <dc:date>23 February 2011</dc:date>
        <dc:creator>
          <cc:Agent>
            <dc:title>MythTV Foundation</dc:title>
          </cc:Agent>
        </dc:creator>
        <dc:rights>
          <cc:Agent>
            <dc:title>MythTV Foundation</dc:title>
          </cc:Agent>
        </dc:rights>
        <dc:publisher>
          <cc:Agent>
            <dc:title>MythTV Foundation</dc:title>
          </cc:Agent>
        </dc:publisher>
        <dc:contributor>
          <cc:Agent>
            <dc:title>Stuart Morgan</dc:title>
          </cc:Agent>
        </dc:contributor>
        <dc:description>Official logo of the MythTV Project</dc:description>
        <cc:license
           rdf:resource="" />
      </cc:Work>
    </rdf:RDF>
  </metadata>
  <g
     inkscape:label="Layer 1"
     inkscape:groupmode="layer"
     id="layer1"
     transform="translate(-26.9328,-159.1927)" />
  <g
     id="g3870"
     transform="matrix(0.11727484,0,0,0.11727484,-2.388373,-6.5456964)">
    <path
       transform="matrix(1.242663,0,0,1.242663,-48.949496,-35.986307)"
       sodipodi:nodetypes="cccccccccccccccc"
       id="text1987"
       d="m 203.82343,110.32631 0,14.5 20.59375,0 0,43.8125 18.5625,0 0,-43.8125 c 7.90487,-0.0313 15.81039,0.0518 23.71507,-0.019 l 19.03493,44.5815 12.1875,0 26.5,-59.0625 -18.40625,0 -14.34375,33.6875 -13.125,-33.6875 -13.96875,0 -3.59375,0 z"
       style="font-size:87.65383911px;font-style:normal;font-weight:normal;fill:#cccccc;fill-opacity:1;stroke:#cccccc;stroke-width:0.24141702;stroke-linecap:butt;stroke-linejoin:miter;stroke-miterlimit:4;stroke-opacity:1;stroke-dasharray:none;filter:url(#filter4163);font-family:Gill Sans MT"
       inkscape:connector-curvature="0" />
    <path
       transform="matrix(1.242663,0,0,1.242663,-48.949496,-35.986307)"
       id="text1971"
       d="m 170.27134,88.242969 0,49.937511 c -2.33927,1.13106 -4.60166,1.6875 -6.74999,1.6875 -3.62753,0 -5.43751,-2.14843 -5.4375,-6.46875 l 0,-18.5 12.09374,0 0,-6.71875 -12.09374,0 0,-7.8125 -8.375,8.125 0.15625,-0.3125 -8.5,0 -9.8125,21.28125 -10.25,-21.28125 -8.59375,0 2.53125,5.125 12.21875,24.53125 -12.96875,27.3125 8.40625,0 23.78125,-50.25 3.84375,0 0,16.75 c -1e-5,3.41798 0.18154,5.72071 0.5,6.9375 0.31844,1.2168 0.71675,2.2168 1.1875,2.96875 0.47074,0.75195 1.06127,1.42969 1.78125,2.03125 2.29834,1.99609 5.16361,2.96874 8.625,2.96875 2.71683,-10e-6 5.26876,-0.49 7.65624,-1.5 l 0,0.5 7.71875,0 0,-27.03125 c 1.80856,-1.96872 3.43976,-3.37107 4.9375,-4.21875 1.4977,-0.84763 3.11694,-1.28122 4.8125,-1.28125 2.28895,3e-5 4.13241,0.84964 5.53125,2.53125 1.39879,1.68166 2.09372,3.89455 2.09375,6.65625 l 0,23.34375 7.71875,0 0,-21.5 c -4e-5,-4.37498 -0.52809,-7.66013 -1.53125,-9.875 -1.00323,-2.21481 -2.53088,-3.96091 -4.59375,-5.21875 -2.06293,-1.25778 -4.40021,-1.87497 -7,-1.875 -4.77578,3e-5 -8.74725,1.88675 -11.96875,5.6875 l 0,-24.531261 -7.71875,0 z M 115.2401,113.30548 c -0.4492,-0.84595 -0.96357,-1.61133 -1.5625,-2.28125 -2.39584,-2.67965 -5.44491,-4.03122 -9.15625,-4.03125 -4.40386,3e-5 -8.643788,2.31253 -12.687504,6.90625 -2.65894,-4.53903 -6.403062,-6.81247 -11.25,-6.8125 -3.683715,3e-5 -7.462643,1.88675 -11.312503,5.6875 l 0,-4.96875 -7.5625,0 0,37.75 7.5625,0 0,-27.40625 c 1.6895,-1.80466 3.21563,-3.07029 4.53125,-3.78125 1.31559,-0.71091 2.765007,-1.06247 4.343753,-1.0625 2.825065,3e-5 4.801899,0.84573 5.9375,2.5 1.135546,1.65432 1.687472,4.56643 1.6875,8.75 l 0,21 7.625,0 0,-27.40625 c 2.714262,-3.11716 5.620204,-4.65622 8.750004,-4.65625 2.43728,3e-5 4.32319,0.83206 5.625,2.5 1.3017,1.66799 1.93745,4.07424 1.9375,7.21875 l 0,22.34375 7.5625,0 0,-22.28125 c -5e-5,-4.12205 -0.68364,-7.4309 -2.03125,-9.96875 z"
       style="font-size:84.54075623px;font-style:normal;font-weight:normal;fill:#cccccc;fill-opacity:1;stroke:#cccccc;stroke-width:0.24141702;stroke-linecap:butt;stroke-linejoin:miter;stroke-miterlimit:4;stroke-opacity:1;stroke-dasharray:none;filter:url(#filter4171);font-family:Gill Sans MT"
       inkscape:connector-curvature="0" />
  </g>
</svg>
